OpenSim_Sub06_EMGBaseline_GRF.mot
version=1
nRows=35
nColumns=19
inDegrees=no
endheader
time	lFx	lFy	lFz	lCOPx	lCOPy	lCOPz	rFx	rFy	rFz	rCOPx	rCOPy	rCOPz	lMx	lMy	lMz	rMx	rMy	rMz
0	6.38732489	327.96387373	29.26178761	0.70444735	0	-0.67001325	2.97754485	351.18438780	-23.76514480	0.71575339	0	-0.39885400	0	-0.34282091	0	0	1.41117525	0
0.01000000	6.65404816	328.03982110	29.58518436	0.70481830	0	-0.67005513	3.14861002	350.76996452	-23.84783720	0.71623869	0	-0.39882196	0	-0.48025695	0	0	1.58282771	0
0.02000000	6.80295204	328.26354959	29.86033527	0.70512697	0	-0.67004635	3.22886170	350.40095243	-23.86569666	0.71648369	0	-0.39873513	0	-0.52445064	0	0	1.66069079	0
0.03000000	6.87818017	328.60068778	30.10026872	0.70532394	0	-0.67004835	3.20557389	350.11589692	-23.85827483	0.71650328	0	-0.39863075	0	-0.49658072	0	0	1.69101563	-0.00000000
0.04000000	6.88835461	328.95691856	30.33273020	0.70547626	0	-0.67006300	3.06679909	349.93503067	-23.83956772	0.71647643	0	-0.39853829	0	-0.43121587	0	0	1.70530946	0.00000000
0.05000000	6.77137281	329.29581074	30.54958347	0.70581413	0	-0.67007676	2.75136361	349.88929593	-23.80618969	0.71670203	0	-0.39843668	0	-0.34372608	0	0	1.70566983	-0.00000000
0.06000000	6.39010695	329.66543081	30.72614078	0.70654036	0	-0.67007672	2.16569655	350.02487309	-23.76703022	0.71749552	0	-0.39827659	0	-0.25829676	0	0	1.69245755	0
0.07000000	5.67663002	330.02115731	30.80843406	0.70751157	0	-0.67004990	1.29278168	350.30170620	-23.75175550	0.71866251	0	-0.39808899	0	-0.23460705	0	0	1.69088447	0
0.08000000	4.92344391	330.28440818	30.75262619	0.70816029	0	-0.67001969	0.46880288	350.61518767	-23.78933724	0.71968509	0	-0.39796034	0	-0.30157949	0	0	1.69514452	0
0.09000000	4.60538176	330.32416378	30.60749910	0.70784282	0	-0.66999550	0.09800369	350.79439949	-23.90682900	0.71986616	0	-0.39792364	0	-0.46237249	0	0	1.73924834	-0.00000000
0.10000000	4.91429337	330.04428800	30.40272354	0.70693924	0	-0.67001049	0.31475394	350.72490536	-24.05100137	0.71940189	0	-0.39789964	0	-0.64219141	0	0	1.77628338	0
0.11000000	5.51408422	329.38890875	30.18160231	0.70612984	0	-0.67005912	0.78101283	350.35806916	-24.21279309	0.71880012	0	-0.39783606	0	-0.82273093	0	0	1.78996599	0
0.12000000	6.03810274	328.44234373	29.94073324	0.70577861	0	-0.67011992	1.17186586	349.81235337	-24.34274857	0.71851489	0	-0.39770217	0	-0.99575158	0	0	1.76043236	0.00000000
0.13000000	6.29892758	327.57346012	29.68985575	0.70582633	0	-0.67017570	1.35119089	349.39985800	-24.43730249	0.71867045	0	-0.39751317	0	-1.15697357	0	0	1.71101131	0
0.14000000	6.31513947	327.10218578	29.47850572	0.70602695	0	-0.67021623	1.31960724	349.41217966	-24.53383019	0.71912909	0	-0.39728740	0	-1.30605948	0	0	1.68710446	0
0.15000000	6.23588663	327.03533144	29.33519665	0.70624083	0	-0.67019755	1.18453094	349.84612461	-24.65337452	0.71961075	0	-0.39706860	0	-1.44835240	0	0	1.70857970	0
0.16000000	6.17641192	327.14175438	29.22340100	0.70642506	0	-0.67014303	1.01330028	350.57056332	-24.79899795	0.71984444	0	-0.39690571	0	-1.58218257	0	0	1.76369355	0
0.17000000	6.17336038	327.13655699	29.13334907	0.70660679	0	-0.67007879	0.87022315	351.52084995	-24.96786418	0.71983187	0	-0.39677201	0	-1.69872031	0	0	1.82454125	0
0.18000000	6.22063220	326.81979024	29.05235857	0.70677654	0	-0.67003531	0.84949523	352.71073848	-25.19072109	0.71970404	0	-0.39663673	0	-1.78845905	0	0	1.87168557	0
0.19000000	6.32537826	326.22311747	28.95179821	0.70692038	0	-0.67006399	0.97865163	354.27814246	-25.51405779	0.71966814	0	-0.39644981	0	-1.84549360	0	0	1.92410192	0
0.20000000	6.49174901	325.70176071	28.87822222	0.70713422	0	-0.67014102	1.21426594	356.50616318	-25.95967789	0.71994449	0	-0.39614437	0	-1.89575359	0	0	1.98293978	0
0.21000000	6.72308743	325.79451376	28.90146625	0.70749044	0	-0.67023401	1.44206275	359.68534047	-26.54566973	0.72062662	0	-0.39568897	0	-1.96661634	0	0	2.02367270	-0.00000000
0.22000000	6.94716972	327.03261413	29.06165160	0.70805018	0	-0.67041965	1.48752999	363.95767088	-27.27322342	0.72175065	0	-0.39510766	0	-2.06580288	0	0	2.02241062	0
0.23000000	7.04335411	329.57990777	29.36207615	0.70885465	0	-0.67071071	1.20653116	369.09702376	-28.13073153	0.72322695	0	-0.39447438	0	-2.19067602	0	0	1.96788873	0.00000000
0.24000000	6.91104275	333.12060168	29.73014808	0.71004080	0	-0.67102241	0.61377472	374.65102509	-29.13733378	0.72492245	0	-0.39387299	0	-2.31734756	0	0	1.87534076	0
0.25000000	6.50238342	337.08369541	30.09924017	0.71166726	0	-0.67128221	-0.11586508	380.30286509	-30.27229049	0.72663653	0	-0.39329926	0	-2.43402531	0	0	1.77361130	-0.00000000
0.26000000	5.77609544	340.77344685	30.45367101	0.71354446	0	-0.67145232	-0.80404882	385.94512046	-31.44870994	0.72851021	0	-0.39268788	0	-2.54673674	0	0	1.67525169	0
0.27000000	4.78363721	343.49402686	30.75929654	0.71568571	0	-0.67162072	-1.36671226	391.22799150	-32.55072145	0.73077764	0	-0.39201421	0	-2.65181323	0	0	1.56824802	-0.00000000
0.28000000	3.69682872	344.67093239	30.95946889	0.71813130	0	-0.67191967	-1.86754519	395.37786922	-33.42932862	0.73345507	0	-0.39119741	0	-2.74613258	0	0	1.46250467	0
0.29000000	2.65717868	343.83298484	31.03867138	0.72064750	0	-0.67232184	-2.44205198	397.51011346	-33.98087792	0.73645979	0	-0.39023995	0	-2.83379195	0	0	1.38459952	0
0.30000000	1.75121773	340.80820262	30.97258518	0.72319830	0	-0.67271473	-3.12724264	397.10890970	-34.23850615	0.73941182	0	-0.38923276	0	-2.90975436	0	0	1.34954061	0
0.31000000	1.03245671	335.76194155	30.76301482	0.72601827	0	-0.67304562	-3.81300453	394.37608417	-34.28159782	0.74205048	0	-0.38821517	0	-2.98604085	0	0	1.35328517	0.00000000
0.32000000	0.48149447	328.93554354	30.43253010	0.72910330	0	-0.67327760	-4.37504267	390.17477982	-34.24074158	0.74452167	0	-0.38723152	0	-3.08802932	0	0	1.35465066	0
0.33000000	0.05420276	320.57267005	29.99212347	0.73179787	0	-0.67344159	-4.77211458	385.50374219	-34.26932028	0.74681396	0	-0.38633942	0	-3.21790351	0	0	1.30998961	0.00000000
0.34000000	-0.20924787	311.12026624	29.44060305	0.73364070	0	-0.67356865	-5.05235887	381.14011697	-34.49080117	0.74877160	0	-0.38557620	0	-3.33334927	0	0	1.22610205	-0.00000000
